<?xml version="1.0" encoding="UTF-8"?>
<svg width="700" height="546" viewBox="0 0 700 546" fill="none" xmlns="http://www.w3.org/2000/svg">
<g filter="url(#filter0_dddddi_248_355)">
<path fill-rule="evenodd" clip-rule="evenodd" d="M90.3878 178C90.3878 173.029 94.4172 169 99.3878 169H170.238C175.209 169 179.238 173.029 179.238 178V236.388H231C236.523 236.388 241 240.865 241 246.388V304.758C241 310.281 236.523 314.758 231 314.758H179.238V367.5C179.238 372.471 175.209 376.5 170.238 376.5H99.3878C94.4172 376.5 90.3878 372.471 90.3878 367.5V314.758H37C31.4772 314.758 27 310.281 27 304.758V246.388C27 240.865 31.4772 236.388 37 236.388H90.3878V178Z" fill="url(#paint0_linear_248_355)"/>
</g>
<g filter="url(#filter1_dddd_248_355)">
<path d="M365.008 264.516C365.008 267.413 364.65 270.001 363.934 272.279C363.217 274.558 362.241 276.576 361.004 278.334C359.799 280.059 358.4 281.54 356.805 282.777C355.21 284.014 353.533 285.04 351.775 285.854C350.05 286.635 348.292 287.204 346.502 287.562C344.744 287.921 343.084 288.1 341.521 288.1L368.035 311H348.406L321.941 288.1H312.811V275.404H341.521C343.117 275.274 344.565 274.949 345.867 274.428C347.202 273.874 348.341 273.142 349.285 272.23C350.262 271.319 351.01 270.229 351.531 268.959C352.052 267.657 352.312 266.176 352.312 264.516V256.508C352.312 255.792 352.215 255.255 352.02 254.896C351.857 254.506 351.629 254.229 351.336 254.066C351.076 253.871 350.783 253.757 350.457 253.725C350.164 253.692 349.887 253.676 349.627 253.676H307.732V311H295.037V247.377C295.037 246.498 295.2 245.668 295.525 244.887C295.851 244.105 296.29 243.422 296.844 242.836C297.43 242.25 298.113 241.794 298.895 241.469C299.676 241.143 300.522 240.98 301.434 240.98H349.627C352.459 240.98 354.852 241.501 356.805 242.543C358.758 243.552 360.337 244.838 361.541 246.4C362.778 247.93 363.657 249.59 364.178 251.381C364.731 253.171 365.008 254.848 365.008 256.41V264.516Z" fill="white"/>
</g>
<defs>
<filter id="filter0_dddddi_248_355" x="23" y="169" width="222" height="215.5" filterUnits="userSpaceOnUse" color-interpolation-filters="sRGB">
<feFlood flood-opacity="0" result="BackgroundImageFix"/>
<feColorMatrix in="SourceAlpha" type="matrix" values="0 0 0 0 0 0 0 0 0 0 0 0 0 0 0 0 0 0 127 0" result="hardAlpha"/>
<feOffset dy="4"/>
<feGaussianBlur stdDeviation="2"/>
<feComposite in2="hardAlpha" operator="out"/>
<feColorMatrix type="matrix" values="0 0 0 0 0 0 0 0 0 0 0 0 0 0 0 0 0 0 0.25 0"/>
<feBlend mode="normal" in2="BackgroundImageFix" result="effect1_dropShadow_248_355"/>
<feBlend mode="normal" in="SourceGraphic" in2="effect1_dropShadow_248_355" result="shape"/>
</filter>
<filter id="filter1_dddd_248_355" x="291.037" y="240.98" width="356.828" height="78.0195" filterUnits="userSpaceOnUse" color-interpolation-filters="sRGB">
<feFlood flood-opacity="0" result="BackgroundImageFix"/>
<feColorMatrix in="SourceAlpha" type="matrix" values="0 0 0 0 0 0 0 0 0 0 0 0 0 0 0 0 0 0 127 0" result="hardAlpha"/>
<feOffset dy="4"/>
<feGaussianBlur stdDeviation="2"/>
<feComposite in2="hardAlpha" operator="out"/>
<feColorMatrix type="matrix" values="0 0 0 0 0 0 0 0 0 0 0 0 0 0 0 0 0 0 0.25 0"/>
<feBlend mode="normal" in2="BackgroundImageFix" result="effect1_dropShadow_248_355"/>
<feBlend mode="normal" in="SourceGraphic" in2="effect1_dropShadow_248_355" result="shape"/>
</filter>
<linearGradient id="paint0_linear_248_355" x1="134" y1="376.5" x2="134" y2="169" gradientUnits="userSpaceOnUse">
<stop stop-color="#00E5FF"/>
<stop offset="0.575" stop-color="#CFF400"/>
<stop offset="0.98" stop-color="#CFF400"/>
</linearGradient>
</defs>
</svg>